<svg xmlns="http://www.w3.org/2000/svg" width="1000" height="1000" viewBox="0 0 1000 1000">
  <defs><clipPath id="c"><circle cx="500" cy="500" r="486"/></clipPath></defs>
  <circle cx="500" cy="500" r="486" fill="#060809"/>
  <g clip-path="url(#c)">
    <rect x="14" y="14" width="972" height="972" fill="#060809"/>
    <line x1="40" y1="40" x2="960" y2="40" stroke="#000" stroke-width="2" opacity="0.20"/><line x1="40" y1="46" x2="960" y2="46" stroke="#000" stroke-width="2" opacity="0.20"/><line x1="40" y1="52" x2="960" y2="52" stroke="#000" stroke-width="2" opacity="0.20"/><line x1="40" y1="58" x2="960" y2="58" stroke="#000" stroke-width="2" opacity="0.20"/><line x1="40" y1="64" x2="960" y2="64" stroke="#000" stroke-width="2" opacity="0.20"/><line x1="40" y1="70" x2="960" y2="70" stroke="#000" stroke-width="2" opacity="0.20"/><line x1="40" y1="76" x2="960" y2="76" stroke="#000" stroke-width="2" opacity="0.20"/><line x1="40" y1="82" x2="960" y2="82" stroke="#000" stroke-width="2" opacity="0.20"/><line x1="40" y1="88" x2="960" y2="88" stroke="#000" stroke-width="2" opacity="0.20"/><line x1="40" y1="94" x2="960" y2="94" stroke="#000" stroke-width="2" opacity="0.20"/><line x1="40" y1="100" x2="960" y2="100" stroke="#000" stroke-width="2" opacity="0.20"/><line x1="40" y1="106" x2="960" y2="106" stroke="#000" stroke-width="2" opacity="0.20"/><line x1="40" y1="112" x2="960" y2="112" stroke="#000" stroke-width="2" opacity="0.20"/><line x1="40" y1="118" x2="960" y2="118" stroke="#000" stroke-width="2" opacity="0.20"/><line x1="40" y1="124" x2="960" y2="124" stroke="#000" stroke-width="2" opacity="0.20"/><line x1="40" y1="130" x2="960" y2="130" stroke="#000" stroke-width="2" opacity="0.20"/><line x1="40" y1="136" x2="960" y2="136" stroke="#000" stroke-width="2" opacity="0.20"/><line x1="40" y1="142" x2="960" y2="142" stroke="#000" stroke-width="2" opacity="0.20"/><line x1="40" y1="148" x2="960" y2="148" stroke="#000" stroke-width="2" opacity="0.20"/><line x1="40" y1="154" x2="960" y2="154" stroke="#000" stroke-width="2" opacity="0.20"/><line x1="40" y1="160" x2="960" y2="160" stroke="#000" stroke-width="2" opacity="0.20"/><line x1="40" y1="166" x2="960" y2="166" stroke="#000" stroke-width="2" opacity="0.20"/><line x1="40" y1="172" x2="960" y2="172" stroke="#000" stroke-width="2" opacity="0.20"/><line x1="40" y1="178" x2="960" y2="178" stroke="#000" stroke-width="2" opacity="0.20"/><line x1="40" y1="184" x2="960" y2="184" stroke="#000" stroke-width="2" opacity="0.20"/><line x1="40" y1="190" x2="960" y2="190" stroke="#000" stroke-width="2" opacity="0.20"/><line x1="40" y1="196" x2="960" y2="196" stroke="#000" stroke-width="2" opacity="0.20"/><line x1="40" y1="202" x2="960" y2="202" stroke="#000" stroke-width="2" opacity="0.20"/><line x1="40" y1="208" x2="960" y2="208" stroke="#000" stroke-width="2" opacity="0.20"/><line x1="40" y1="214" x2="960" y2="214" stroke="#000" stroke-width="2" opacity="0.20"/><line x1="40" y1="220" x2="960" y2="220" stroke="#000" stroke-width="2" opacity="0.20"/><line x1="40" y1="226" x2="960" y2="226" stroke="#000" stroke-width="2" opacity="0.20"/><line x1="40" y1="232" x2="960" y2="232" stroke="#000" stroke-width="2" opacity="0.20"/><line x1="40" y1="238" x2="960" y2="238" stroke="#000" stroke-width="2" opacity="0.20"/><line x1="40" y1="244" x2="960" y2="244" stroke="#000" stroke-width="2" opacity="0.20"/><line x1="40" y1="250" x2="960" y2="250" stroke="#000" stroke-width="2" opacity="0.20"/><line x1="40" y1="256" x2="960" y2="256" stroke="#000" stroke-width="2" opacity="0.20"/><line x1="40" y1="262" x2="960" y2="262" stroke="#000" stroke-width="2" opacity="0.20"/><line x1="40" y1="268" x2="960" y2="268" stroke="#000" stroke-width="2" opacity="0.20"/><line x1="40" y1="274" x2="960" y2="274" stroke="#000" stroke-width="2" opacity="0.20"/><line x1="40" y1="280" x2="960" y2="280" stroke="#000" stroke-width="2" opacity="0.20"/><line x1="40" y1="286" x2="960" y2="286" stroke="#000" stroke-width="2" opacity="0.20"/><line x1="40" y1="292" x2="960" y2="292" stroke="#000" stroke-width="2" opacity="0.20"/><line x1="40" y1="298" x2="960" y2="298" stroke="#000" stroke-width="2" opacity="0.20"/><line x1="40" y1="304" x2="960" y2="304" stroke="#000" stroke-width="2" opacity="0.20"/><line x1="40" y1="310" x2="960" y2="310" stroke="#000" stroke-width="2" opacity="0.20"/><line x1="40" y1="316" x2="960" y2="316" stroke="#000" stroke-width="2" opacity="0.20"/><line x1="40" y1="322" x2="960" y2="322" stroke="#000" stroke-width="2" opacity="0.20"/><line x1="40" y1="328" x2="960" y2="328" stroke="#000" stroke-width="2" opacity="0.20"/><line x1="40" y1="334" x2="960" y2="334" stroke="#000" stroke-width="2" opacity="0.20"/><line x1="40" y1="340" x2="960" y2="340" stroke="#000" stroke-width="2" opacity="0.20"/><line x1="40" y1="346" x2="960" y2="346" stroke="#000" stroke-width="2" opacity="0.20"/><line x1="40" y1="352" x2="960" y2="352" stroke="#000" stroke-width="2" opacity="0.20"/><line x1="40" y1="358" x2="960" y2="358" stroke="#000" stroke-width="2" opacity="0.20"/><line x1="40" y1="364" x2="960" y2="364" stroke="#000" stroke-width="2" opacity="0.20"/><line x1="40" y1="370" x2="960" y2="370" stroke="#000" stroke-width="2" opacity="0.20"/><line x1="40" y1="376" x2="960" y2="376" stroke="#000" stroke-width="2" opacity="0.20"/><line x1="40" y1="382" x2="960" y2="382" stroke="#000" stroke-width="2" opacity="0.20"/><line x1="40" y1="388" x2="960" y2="388" stroke="#000" stroke-width="2" opacity="0.20"/><line x1="40" y1="394" x2="960" y2="394" stroke="#000" stroke-width="2" opacity="0.20"/><line x1="40" y1="400" x2="960" y2="400" stroke="#000" stroke-width="2" opacity="0.20"/><line x1="40" y1="406" x2="960" y2="406" stroke="#000" stroke-width="2" opacity="0.20"/><line x1="40" y1="412" x2="960" y2="412" stroke="#000" stroke-width="2" opacity="0.20"/><line x1="40" y1="418" x2="960" y2="418" stroke="#000" stroke-width="2" opacity="0.20"/><line x1="40" y1="424" x2="960" y2="424" stroke="#000" stroke-width="2" opacity="0.20"/><line x1="40" y1="430" x2="960" y2="430" stroke="#000" stroke-width="2" opacity="0.20"/><line x1="40" y1="436" x2="960" y2="436" stroke="#000" stroke-width="2" opacity="0.20"/><line x1="40" y1="442" x2="960" y2="442" stroke="#000" stroke-width="2" opacity="0.20"/><line x1="40" y1="448" x2="960" y2="448" stroke="#000" stroke-width="2" opacity="0.20"/><line x1="40" y1="454" x2="960" y2="454" stroke="#000" stroke-width="2" opacity="0.20"/><line x1="40" y1="460" x2="960" y2="460" stroke="#000" stroke-width="2" opacity="0.20"/><line x1="40" y1="466" x2="960" y2="466" stroke="#000" stroke-width="2" opacity="0.20"/><line x1="40" y1="472" x2="960" y2="472" stroke="#000" stroke-width="2" opacity="0.20"/><line x1="40" y1="478" x2="960" y2="478" stroke="#000" stroke-width="2" opacity="0.20"/><line x1="40" y1="484" x2="960" y2="484" stroke="#000" stroke-width="2" opacity="0.20"/><line x1="40" y1="490" x2="960" y2="490" stroke="#000" stroke-width="2" opacity="0.20"/><line x1="40" y1="496" x2="960" y2="496" stroke="#000" stroke-width="2" opacity="0.20"/><line x1="40" y1="502" x2="960" y2="502" stroke="#000" stroke-width="2" opacity="0.20"/><line x1="40" y1="508" x2="960" y2="508" stroke="#000" stroke-width="2" opacity="0.20"/><line x1="40" y1="514" x2="960" y2="514" stroke="#000" stroke-width="2" opacity="0.20"/><line x1="40" y1="520" x2="960" y2="520" stroke="#000" stroke-width="2" opacity="0.20"/><line x1="40" y1="526" x2="960" y2="526" stroke="#000" stroke-width="2" opacity="0.20"/><line x1="40" y1="532" x2="960" y2="532" stroke="#000" stroke-width="2" opacity="0.20"/><line x1="40" y1="538" x2="960" y2="538" stroke="#000" stroke-width="2" opacity="0.20"/><line x1="40" y1="544" x2="960" y2="544" stroke="#000" stroke-width="2" opacity="0.20"/><line x1="40" y1="550" x2="960" y2="550" stroke="#000" stroke-width="2" opacity="0.20"/><line x1="40" y1="556" x2="960" y2="556" stroke="#000" stroke-width="2" opacity="0.20"/><line x1="40" y1="562" x2="960" y2="562" stroke="#000" stroke-width="2" opacity="0.20"/><line x1="40" y1="568" x2="960" y2="568" stroke="#000" stroke-width="2" opacity="0.20"/><line x1="40" y1="574" x2="960" y2="574" stroke="#000" stroke-width="2" opacity="0.20"/><line x1="40" y1="580" x2="960" y2="580" stroke="#000" stroke-width="2" opacity="0.20"/><line x1="40" y1="586" x2="960" y2="586" stroke="#000" stroke-width="2" opacity="0.20"/><line x1="40" y1="592" x2="960" y2="592" stroke="#000" stroke-width="2" opacity="0.20"/><line x1="40" y1="598" x2="960" y2="598" stroke="#000" stroke-width="2" opacity="0.20"/><line x1="40" y1="604" x2="960" y2="604" stroke="#000" stroke-width="2" opacity="0.20"/><line x1="40" y1="610" x2="960" y2="610" stroke="#000" stroke-width="2" opacity="0.20"/><line x1="40" y1="616" x2="960" y2="616" stroke="#000" stroke-width="2" opacity="0.20"/><line x1="40" y1="622" x2="960" y2="622" stroke="#000" stroke-width="2" opacity="0.20"/><line x1="40" y1="628" x2="960" y2="628" stroke="#000" stroke-width="2" opacity="0.20"/><line x1="40" y1="634" x2="960" y2="634" stroke="#000" stroke-width="2" opacity="0.20"/><line x1="40" y1="640" x2="960" y2="640" stroke="#000" stroke-width="2" opacity="0.20"/><line x1="40" y1="646" x2="960" y2="646" stroke="#000" stroke-width="2" opacity="0.20"/><line x1="40" y1="652" x2="960" y2="652" stroke="#000" stroke-width="2" opacity="0.20"/><line x1="40" y1="658" x2="960" y2="658" stroke="#000" stroke-width="2" opacity="0.20"/><line x1="40" y1="664" x2="960" y2="664" stroke="#000" stroke-width="2" opacity="0.20"/><line x1="40" y1="670" x2="960" y2="670" stroke="#000" stroke-width="2" opacity="0.20"/><line x1="40" y1="676" x2="960" y2="676" stroke="#000" stroke-width="2" opacity="0.20"/><line x1="40" y1="682" x2="960" y2="682" stroke="#000" stroke-width="2" opacity="0.20"/><line x1="40" y1="688" x2="960" y2="688" stroke="#000" stroke-width="2" opacity="0.20"/><line x1="40" y1="694" x2="960" y2="694" stroke="#000" stroke-width="2" opacity="0.20"/><line x1="40" y1="700" x2="960" y2="700" stroke="#000" stroke-width="2" opacity="0.20"/><line x1="40" y1="706" x2="960" y2="706" stroke="#000" stroke-width="2" opacity="0.20"/><line x1="40" y1="712" x2="960" y2="712" stroke="#000" stroke-width="2" opacity="0.20"/><line x1="40" y1="718" x2="960" y2="718" stroke="#000" stroke-width="2" opacity="0.20"/><line x1="40" y1="724" x2="960" y2="724" stroke="#000" stroke-width="2" opacity="0.20"/><line x1="40" y1="730" x2="960" y2="730" stroke="#000" stroke-width="2" opacity="0.20"/><line x1="40" y1="736" x2="960" y2="736" stroke="#000" stroke-width="2" opacity="0.20"/><line x1="40" y1="742" x2="960" y2="742" stroke="#000" stroke-width="2" opacity="0.20"/><line x1="40" y1="748" x2="960" y2="748" stroke="#000" stroke-width="2" opacity="0.20"/><line x1="40" y1="754" x2="960" y2="754" stroke="#000" stroke-width="2" opacity="0.20"/><line x1="40" y1="760" x2="960" y2="760" stroke="#000" stroke-width="2" opacity="0.20"/><line x1="40" y1="766" x2="960" y2="766" stroke="#000" stroke-width="2" opacity="0.20"/><line x1="40" y1="772" x2="960" y2="772" stroke="#000" stroke-width="2" opacity="0.20"/><line x1="40" y1="778" x2="960" y2="778" stroke="#000" stroke-width="2" opacity="0.20"/><line x1="40" y1="784" x2="960" y2="784" stroke="#000" stroke-width="2" opacity="0.20"/><line x1="40" y1="790" x2="960" y2="790" stroke="#000" stroke-width="2" opacity="0.20"/><line x1="40" y1="796" x2="960" y2="796" stroke="#000" stroke-width="2" opacity="0.20"/><line x1="40" y1="802" x2="960" y2="802" stroke="#000" stroke-width="2" opacity="0.20"/><line x1="40" y1="808" x2="960" y2="808" stroke="#000" stroke-width="2" opacity="0.20"/><line x1="40" y1="814" x2="960" y2="814" stroke="#000" stroke-width="2" opacity="0.20"/><line x1="40" y1="820" x2="960" y2="820" stroke="#000" stroke-width="2" opacity="0.20"/><line x1="40" y1="826" x2="960" y2="826" stroke="#000" stroke-width="2" opacity="0.20"/><line x1="40" y1="832" x2="960" y2="832" stroke="#000" stroke-width="2" opacity="0.20"/><line x1="40" y1="838" x2="960" y2="838" stroke="#000" stroke-width="2" opacity="0.20"/><line x1="40" y1="844" x2="960" y2="844" stroke="#000" stroke-width="2" opacity="0.20"/><line x1="40" y1="850" x2="960" y2="850" stroke="#000" stroke-width="2" opacity="0.20"/><line x1="40" y1="856" x2="960" y2="856" stroke="#000" stroke-width="2" opacity="0.20"/><line x1="40" y1="862" x2="960" y2="862" stroke="#000" stroke-width="2" opacity="0.20"/><line x1="40" y1="868" x2="960" y2="868" stroke="#000" stroke-width="2" opacity="0.20"/><line x1="40" y1="874" x2="960" y2="874" stroke="#000" stroke-width="2" opacity="0.20"/><line x1="40" y1="880" x2="960" y2="880" stroke="#000" stroke-width="2" opacity="0.20"/><line x1="40" y1="886" x2="960" y2="886" stroke="#000" stroke-width="2" opacity="0.20"/><line x1="40" y1="892" x2="960" y2="892" stroke="#000" stroke-width="2" opacity="0.20"/><line x1="40" y1="898" x2="960" y2="898" stroke="#000" stroke-width="2" opacity="0.20"/><line x1="40" y1="904" x2="960" y2="904" stroke="#000" stroke-width="2" opacity="0.20"/><line x1="40" y1="910" x2="960" y2="910" stroke="#000" stroke-width="2" opacity="0.20"/><line x1="40" y1="916" x2="960" y2="916" stroke="#000" stroke-width="2" opacity="0.20"/><line x1="40" y1="922" x2="960" y2="922" stroke="#000" stroke-width="2" opacity="0.20"/><line x1="40" y1="928" x2="960" y2="928" stroke="#000" stroke-width="2" opacity="0.20"/><line x1="40" y1="934" x2="960" y2="934" stroke="#000" stroke-width="2" opacity="0.20"/><line x1="40" y1="940" x2="960" y2="940" stroke="#000" stroke-width="2" opacity="0.20"/><line x1="40" y1="946" x2="960" y2="946" stroke="#000" stroke-width="2" opacity="0.20"/><line x1="40" y1="952" x2="960" y2="952" stroke="#000" stroke-width="2" opacity="0.20"/><line x1="40" y1="958" x2="960" y2="958" stroke="#000" stroke-width="2" opacity="0.20"/>
    <!-- beacon -->
    <path d="M500 250 L556 312 L500 374 L444 312 Z" fill="#43ffb4"/>
    <rect x="389" y="348" width="66" height="66" rx="3" fill="#43ffb4" opacity="0.95"/><rect x="467" y="348" width="66" height="66" rx="3" fill="#1f7a5b" opacity="0.7"/><rect x="545" y="348" width="66" height="66" rx="3" fill="#43ffb4" opacity="0.95"/><rect x="311" y="426" width="66" height="66" rx="3" fill="#1f7a5b" opacity="0.7"/><rect x="389" y="426" width="66" height="66" rx="3" fill="#43ffb4" opacity="0.95"/><rect x="467" y="426" width="66" height="66" rx="3" fill="#43ffb4" opacity="0.95"/><rect x="545" y="426" width="66" height="66" rx="3" fill="#43ffb4" opacity="0.95"/><rect x="623" y="426" width="66" height="66" rx="3" fill="#1f7a5b" opacity="0.7"/><rect x="311" y="504" width="66" height="66" rx="3" fill="#43ffb4" opacity="0.95"/><rect x="389" y="504" width="66" height="66" rx="3" fill="#1f7a5b" opacity="0.7"/><rect x="467" y="504" width="66" height="66" rx="3" fill="#43ffb4" opacity="0.95"/><rect x="545" y="504" width="66" height="66" rx="3" fill="#1f7a5b" opacity="0.7"/><rect x="623" y="504" width="66" height="66" rx="3" fill="#43ffb4" opacity="0.95"/><rect x="233" y="582" width="66" height="66" rx="3" fill="#1f7a5b" opacity="0.7"/><rect x="311" y="582" width="66" height="66" rx="3" fill="#43ffb4" opacity="0.95"/><rect x="389" y="582" width="66" height="66" rx="3" fill="#43ffb4" opacity="0.95"/><rect x="467" y="582" width="66" height="66" rx="3" fill="#1f7a5b" opacity="0.7"/><rect x="545" y="582" width="66" height="66" rx="3" fill="#43ffb4" opacity="0.95"/><rect x="623" y="582" width="66" height="66" rx="3" fill="#43ffb4" opacity="0.95"/><rect x="701" y="582" width="66" height="66" rx="3" fill="#1f7a5b" opacity="0.7"/><rect x="233" y="660" width="66" height="66" rx="3" fill="#43ffb4" opacity="0.95"/><rect x="311" y="660" width="66" height="66" rx="3" fill="#1f7a5b" opacity="0.7"/><rect x="389" y="660" width="66" height="66" rx="3" fill="#43ffb4" opacity="0.95"/><rect x="467" y="660" width="66" height="66" rx="3" fill="#43ffb4" opacity="0.95"/><rect x="545" y="660" width="66" height="66" rx="3" fill="#43ffb4" opacity="0.95"/><rect x="623" y="660" width="66" height="66" rx="3" fill="#1f7a5b" opacity="0.7"/><rect x="701" y="660" width="66" height="66" rx="3" fill="#43ffb4" opacity="0.95"/><rect x="233" y="738" width="66" height="66" rx="3" fill="#43ffb4" opacity="0.95"/><rect x="311" y="738" width="66" height="66" rx="3" fill="#43ffb4" opacity="0.95"/><rect x="389" y="738" width="66" height="66" rx="3" fill="#1f7a5b" opacity="0.7"/><rect x="467" y="738" width="66" height="66" rx="3" fill="#43ffb4" opacity="0.95"/><rect x="545" y="738" width="66" height="66" rx="3" fill="#1f7a5b" opacity="0.7"/><rect x="623" y="738" width="66" height="66" rx="3" fill="#43ffb4" opacity="0.95"/><rect x="701" y="738" width="66" height="66" rx="3" fill="#43ffb4" opacity="0.95"/><rect x="233" y="816" width="66" height="66" rx="3" fill="#1f7a5b" opacity="0.7"/><rect x="311" y="816" width="66" height="66" rx="3" fill="#43ffb4" opacity="0.95"/><rect x="389" y="816" width="66" height="66" rx="3" fill="#43ffb4" opacity="0.95"/><rect x="467" y="816" width="66" height="66" rx="3" fill="#43ffb4" opacity="0.95"/><rect x="545" y="816" width="66" height="66" rx="3" fill="#43ffb4" opacity="0.95"/><rect x="623" y="816" width="66" height="66" rx="3" fill="#43ffb4" opacity="0.95"/><rect x="701" y="816" width="66" height="66" rx="3" fill="#1f7a5b" opacity="0.7"/><rect x="233" y="894" width="66" height="66" rx="3" fill="#43ffb4" opacity="0.95"/><rect x="311" y="894" width="66" height="66" rx="3" fill="#43ffb4" opacity="0.95"/><rect x="389" y="894" width="66" height="66" rx="3" fill="#43ffb4" opacity="0.95"/><rect x="467" y="894" width="66" height="66" rx="3" fill="#43ffb4" opacity="0.95"/><rect x="545" y="894" width="66" height="66" rx="3" fill="#43ffb4" opacity="0.95"/><rect x="623" y="894" width="66" height="66" rx="3" fill="#43ffb4" opacity="0.95"/><rect x="701" y="894" width="66" height="66" rx="3" fill="#43ffb4" opacity="0.95"/>
    <!-- binary baseline: the digital signature -->
    <text x="500" y="922" text-anchor="middle" font-family="'Courier New',monospace" font-size="38"
          letter-spacing="7" fill="#1f7a5b" opacity="0.9">01000100 01000011</text>
  </g>
  <circle cx="500" cy="500" r="486" fill="none" stroke="#1c6b50" stroke-width="6"/>
  <circle cx="500" cy="500" r="456" fill="none" stroke="#1c6b50" stroke-width="1.5" opacity="0.4" stroke-dasharray="3 9"/>
</svg>